<?xml version="1.0" encoding="UTF-8"?>
<svg id="Layer_2" data-name="Layer 2" xmlns="http://www.w3.org/2000/svg" viewBox="0 0 336.61 99.41">
  <defs>
    <style>
      .cls-1 {
        fill: #006580;
      }

      .cls-2 {
        fill: #7bcb79;
      }
    </style>
  </defs>
  <g id="OG">
    <g id="Starwood">
      <path class="cls-1" d="M105.28,54.77c-1.29,0-2.58-.12-3.87-.35-1.29-.23-2.5-.56-3.63-.99-1.13-.43-2.1-.93-2.9-1.52l2.15-4.86c1.27.83,2.61,1.45,4.04,1.86,1.42.41,2.85.62,4.29.62s2.61-.21,3.38-.62c.77-.41,1.15-.97,1.15-1.68,0-.41-.13-.79-.4-1.11-.27-.33-.77-.63-1.5-.91-.73-.28-1.78-.57-3.14-.86-1.88-.37-3.43-.8-4.66-1.3s-2.19-1.07-2.88-1.72c-.69-.64-1.18-1.37-1.46-2.17-.28-.8-.42-1.7-.42-2.7,0-1.58.45-3.01,1.35-4.27.9-1.27,2.16-2.26,3.76-3,1.61-.73,3.48-1.1,5.62-1.1,1.24,0,2.47.12,3.69.35,1.22.23,2.34.56,3.38.99,1.04.43,1.88.93,2.54,1.52l-2.12,4.86c-1.17-.83-2.39-1.45-3.65-1.86-1.27-.41-2.52-.62-3.76-.62s-2.24.24-3,.71-1.13,1.11-1.13,1.92c0,.39.13.74.38,1.06.26.32.75.62,1.48.89.73.28,1.84.58,3.32.9,1.8.37,3.31.8,4.51,1.31,1.21.51,2.15,1.09,2.85,1.73.69.65,1.19,1.36,1.48,2.15.29.79.44,1.66.44,2.61,0,1.68-.44,3.13-1.31,4.35-.88,1.22-2.15,2.15-3.83,2.81-1.68.66-3.72.99-6.14.99Z"/>
      <path class="cls-1" d="M128.43,54.44v-20.45h-7.74v-5.55h22.42v5.55h-7.74v20.45h-6.94Z"/>
      <path class="cls-1" d="M148.92,54.44h-6.87l12.16-26h5.4l12.2,26h-6.76l-8.8-20.49h1.5l-8.84,20.49ZM147.68,49.07l2.67-5.15h12.75l2.63,5.15h-18.04Z"/>
      <path class="cls-1" d="M176.06,54.44v-26h12.09c3.17,0,5.53.68,7.1,2.04,1.57,1.36,2.36,3.29,2.36,5.77,0,2.34-.82,4.23-2.47,5.68-1.64,1.45-3.93,2.17-6.85,2.17l3.14-.66c.88,0,1.69.27,2.43.82.74.55,1.32,1.36,1.74,2.43l3.07,7.74h-7.27l-3.36-8.66c-.22-.54-.58-.91-1.1-1.13-.51-.22-1.06-.33-1.64-.33h-2.48v10.12h-6.76ZM182.74,39.21h4.31c1.49,0,2.55-.23,3.2-.68.64-.45.97-1.15.97-2.1,0-1-.32-1.72-.97-2.15-.65-.44-1.71-.66-3.2-.66h-4.31v5.59Z"/>
      <path class="cls-1" d="M211.89,54.44l-9.28-26h6.98l6.1,18.7h-1.57l6.61-18.7h4.67l6.25,18.7h-1.35l6.28-18.7h6.5l-9.31,26h-5.44l-5.92-16.8h.95l-6.03,16.8h-5.44Z"/>
      <path class="cls-1" d="M260.2,54.77c-2.68,0-5-.55-6.96-1.64s-3.47-2.64-4.53-4.64c-1.06-2-1.59-4.36-1.59-7.09s.54-5.05,1.61-7.05c1.07-2,2.58-3.54,4.53-4.62,1.95-1.08,4.26-1.63,6.94-1.63s4.98.54,6.92,1.63c1.94,1.08,3.43,2.62,4.49,4.62,1.06,2,1.59,4.35,1.59,7.05s-.53,5.09-1.59,7.09c-1.06,2-2.56,3.54-4.49,4.64-1.94,1.1-4.24,1.64-6.92,1.64ZM260.2,49.55c1.9,0,3.41-.68,4.55-2.04,1.13-1.36,1.7-3.4,1.7-6.1s-.57-4.69-1.7-6.04c-1.13-1.35-2.65-2.03-4.55-2.03s-3.41.67-4.53,2.01c-1.12,1.34-1.68,3.36-1.68,6.06s.56,4.77,1.68,6.12c1.12,1.35,2.63,2.03,4.53,2.03Z"/>
      <path class="cls-1" d="M292.34,54.77c-2.68,0-5-.55-6.96-1.64s-3.47-2.64-4.53-4.64c-1.06-2-1.59-4.36-1.59-7.09s.54-5.05,1.61-7.05c1.07-2,2.58-3.54,4.53-4.62,1.95-1.08,4.26-1.63,6.94-1.63s4.98.54,6.92,1.63c1.94,1.08,3.43,2.62,4.49,4.62,1.06,2,1.59,4.35,1.59,7.05s-.53,5.09-1.59,7.09c-1.06,2-2.56,3.54-4.49,4.64-1.94,1.1-4.24,1.64-6.92,1.64ZM292.34,49.55c1.9,0,3.41-.68,4.55-2.04,1.13-1.36,1.7-3.4,1.7-6.1s-.57-4.69-1.7-6.04c-1.13-1.35-2.65-2.03-4.55-2.03s-3.41.67-4.53,2.01c-1.12,1.34-1.68,3.36-1.68,6.06s.56,4.77,1.68,6.12c1.12,1.35,2.63,2.03,4.53,2.03Z"/>
      <path class="cls-1" d="M312.1,54.44v-26h10.63c2.9,0,5.38.52,7.45,1.55,2.07,1.04,3.66,2.52,4.77,4.46,1.11,1.94,1.66,4.25,1.66,6.96s-.55,5.06-1.64,7.01-2.68,3.44-4.75,4.47c-2.07,1.04-4.57,1.55-7.49,1.55h-10.63ZM318.97,48.96h3.29c2.53,0,4.42-.63,5.68-1.88,1.25-1.25,1.88-3.15,1.88-5.68,0-4.99-2.52-7.49-7.56-7.49h-3.29v15.05Z"/>
    </g>
    <g>
      <path class="cls-2" d="M136.6,66.79c0-.12.03-.22.09-.28.06-.07.15-.1.26-.1h3.42c.56,0,1.07.1,1.53.29.46.2.86.47,1.19.81.33.34.59.75.77,1.21s.27.96.27,1.5v2.48c0,.54-.09,1.04-.28,1.5-.19.46-.44.87-.78,1.21-.33.34-.73.61-1.19.8-.46.19-.96.29-1.51.29h-1.85v4.8c0,.26-.11.4-.34.4h-1.23c-.24,0-.35-.13-.35-.4v-14.5ZM140.39,74.65c.28,0,.53-.05.76-.15.23-.1.41-.24.57-.41s.27-.38.36-.62c.09-.24.13-.5.13-.78v-2.44c0-.29-.04-.55-.13-.8-.09-.25-.21-.46-.36-.64s-.35-.32-.57-.42c-.23-.1-.48-.15-.76-.15h-1.84v6.4h1.85Z"/>
      <path class="cls-2" d="M154.17,66.79c0-.12.03-.22.09-.28.06-.07.15-.1.26-.1h5.67c.08,0,.15.03.21.09.06.06.09.15.09.27v1.15c0,.12-.03.21-.09.26-.06.05-.13.08-.21.08h-4.09v4.72h3.25c.08,0,.15.03.23.08.07.05.11.14.11.26v1.15c0,.12-.03.21-.1.26s-.14.08-.23.08h-3.25v5.05h4.09c.08,0,.15.03.21.08.06.05.1.14.1.26v1.17c0,.12-.03.21-.1.26-.06.05-.14.08-.21.08h-5.67c-.24,0-.35-.13-.35-.4v-14.5Z"/>
      <path class="cls-2" d="M169.39,66.77c0-.12.03-.21.09-.27s.13-.09.21-.09h6.6c.08,0,.15.03.21.09.06.06.09.15.09.27v1.15c0,.12-.03.21-.09.26-.06.05-.13.08-.21.08h-2.34v13.08c0,.12-.03.21-.09.27-.06.06-.13.09-.21.09h-1.33c-.08,0-.15-.03-.21-.09s-.1-.15-.1-.27v-13.08h-2.33c-.08,0-.15-.03-.21-.08s-.09-.14-.09-.26v-1.14Z"/>
      <path class="cls-2" d="M197.55,66.77c0-.12.03-.21.09-.27.06-.06.13-.09.21-.09h6.6c.08,0,.15.03.21.09.06.06.09.15.09.27v1.15c0,.12-.03.21-.09.26-.06.05-.13.08-.21.08h-2.34v13.08c0,.12-.03.21-.09.27s-.13.09-.21.09h-1.33c-.08,0-.15-.03-.21-.09s-.1-.15-.1-.27v-13.08h-2.33c-.08,0-.15-.03-.21-.08-.06-.05-.09-.14-.09-.26v-1.14Z"/>
      <path class="cls-2" d="M214.3,66.79c0-.12.03-.22.09-.28.06-.07.15-.1.26-.1h3.42c.56,0,1.07.1,1.53.29.46.19.86.46,1.19.8.33.34.59.74.77,1.2.18.46.27.96.27,1.5v1.92c0,.74-.15,1.37-.45,1.91-.3.54-.69.97-1.17,1.29l1.76,5.98c.04.1.03.19-.03.27-.06.08-.13.12-.21.12h-1.36c-.09,0-.17-.02-.21-.06-.05-.04-.09-.12-.12-.24l-1.46-5.48c-.1.01-.2.03-.3.03-.1,0-.2.01-.3.01h-1.75v5.36c0,.25-.12.38-.34.38h-1.23c-.24,0-.35-.12-.35-.38v-14.53ZM216.23,68.25v5.86h1.85c.29,0,.55-.05.78-.15.23-.1.42-.24.57-.41.15-.17.27-.38.35-.62.08-.24.12-.5.12-.78v-1.97c0-.29-.04-.55-.13-.79-.09-.24-.21-.45-.36-.62-.16-.17-.35-.3-.57-.4-.23-.09-.48-.14-.76-.14h-1.84Z"/>
      <path class="cls-2" d="M239.6,81.29c.03.12.02.22-.03.29-.05.07-.12.11-.22.11h-1.35c-.07,0-.15-.02-.22-.06-.08-.04-.13-.12-.15-.25l-.55-2.81h-3.52l-.54,2.81c-.02.12-.07.2-.15.25-.08.04-.16.06-.24.06h-1.34c-.1,0-.17-.04-.22-.11-.05-.07-.06-.17-.03-.29l3.29-14.57c.03-.12.08-.21.14-.25.07-.05.15-.07.23-.07h1.21c.09,0,.16.02.22.07.06.05.11.13.15.25l3.29,14.57ZM233.91,76.82h2.84l-1.33-6.88-.1-1.13-.09,1.13-1.33,6.88Z"/>
      <path class="cls-2" d="M252.34,81.37c-.03.12-.08.21-.14.25-.07.05-.15.07-.23.07h-1.12c-.09,0-.16-.02-.23-.07-.07-.05-.12-.13-.14-.25l-3.34-14.57c-.03-.12-.01-.22.05-.29s.15-.11.25-.11h1.25c.07,0,.15.02.23.06.08.04.13.12.16.25l2.27,11.28.06.92.08-.92,2.26-11.28c.02-.12.07-.2.16-.25s.16-.06.23-.06h1.25c.1,0,.18.04.25.11s.08.17.05.29l-3.34,14.57Z"/>
      <path class="cls-2" d="M265.28,66.79c0-.12.03-.22.09-.28.06-.07.15-.1.26-.1h5.67c.08,0,.15.03.21.09.06.06.09.15.09.27v1.15c0,.12-.03.21-.09.26-.06.05-.13.08-.21.08h-4.09v4.72h3.25c.08,0,.15.03.23.08.07.05.11.14.11.26v1.15c0,.12-.03.21-.1.26-.07.05-.14.08-.23.08h-3.25v5.05h4.09c.08,0,.15.03.21.08s.1.14.1.26v1.17c0,.12-.03.21-.1.26s-.14.08-.21.08h-5.67c-.24,0-.35-.13-.35-.4v-14.5Z"/>
      <path class="cls-2" d="M281.6,66.79c0-.12.03-.22.09-.28.06-.07.15-.1.27-.1h1.23c.12,0,.21.03.26.1.05.07.08.16.08.28v13.06h3.75c.08,0,.15.02.21.07.06.05.1.13.1.25v1.16c0,.12-.03.21-.1.27s-.14.09-.21.09h-5.33c-.24,0-.35-.13-.35-.4v-14.5Z"/>
    </g>
    <g id="Icon">
      <path class="cls-1" d="M68.28,46.98c-3.44-1.49-6.87-3-10.32-4.46-1.06-.45-1.72-1.04-2.03-2.27-.82-3.27-2.93-5.53-6.09-6.69-1.08-.4-1.48-.97-1.52-2.11-.08-2.29-.33-4.57-.48-6.86-.05-.78-.29-1.46-1.06-1.75-.82-.31-1.52-.03-2.12.6-1.25,1.32-2.53,2.6-3.77,3.93-.71.76-1.02.59-1.25-.37-.54-2.23-1.13-4.45-1.74-6.67-.29-1.07-.31-2.47-1.83-2.57-1.62-.11-1.82,1.34-2.25,2.43-5.04,12.76-8.25,21.58-13.27,34.34-.86,2.19-6.89,10.88-6.36,12.01.98,2.08,3.67,5.27,6.85,8.61.11-.11.2-.22.31-.32,1.1-1.04,2.49-2.17,4.41-2.66,1-.25,1.95-.7,2.96-1.17l.32-.15c1.9-.88,2.99-2.37,3.35-4.56.46-2.83,1.54-5.31,3.19-7.37.77-.96,1.67-1.89,3.05-2.21.41-.88.91-1.96,1.66-2.89,1.21-1.49,2.33-1.46,2.9-1.3.96.26,1.64,1.2,1.86,2.57.03.17.05.34.07.52.03.2.05.4.09.6.04.25.05.52.06.78,0,.09,0,.21,0,.31.03,0,.06,0,.09,0,.25,0,.56.02.88.13,1.62.55,2.7,1.4,3.3,2.62.35.7.86,1.2,1.68,1.64.07.04.13.09.19.13,7.78-.07,13.79-3.82,18.29-10.61.33-.5.62-1.04.94-1.56l.03-1.09c-.61-.81-1.51-1.19-2.39-1.57Z"/>
      <path class="cls-2" d="M40.18,99.41s0,0-.01,0c-3.02,0-5.79-1.4-7.59-3.83L1.85,54.1c-2.55-3.44-2.46-8.18.2-11.52L33.16,3.56c1.8-2.25,4.48-3.55,7.36-3.56h.03c2.87,0,5.55,1.28,7.35,3.51l30.99,38.34c2.71,3.36,2.81,8.12.23,11.59l-31.36,42.15c-1.8,2.42-4.57,3.81-7.58,3.81ZM35.4,93.49c1.13,1.53,2.87,2.41,4.77,2.41,0,0,0,0,0,0,1.9,0,3.64-.87,4.77-2.4l31.36-42.15c1.62-2.18,1.56-5.18-.15-7.29L45.18,5.71c-1.14-1.41-2.82-2.21-4.63-2.21h-.02c-1.81,0-3.5.82-4.63,2.24L4.8,44.76c-1.68,2.11-1.73,5.09-.13,7.25l30.73,41.48Z"/>
      <path class="cls-2" d="M50.79,65.15c.19-.32.25-.63.17-.93-.08-.31-.32-.58-.68-.77-1.18-.63-2-1.45-2.53-2.52-.37-.74-1.03-1.24-2.15-1.61-.05-.02-.22-.02-.33-.03-.44-.02-1.27-.05-1.72-.82-.29-.49-.3-1.03-.3-1.46,0-.16,0-.32-.03-.46-.04-.23-.07-.46-.1-.69-.02-.16-.04-.31-.06-.46-.11-.73-.36-.94-.4-.95-.04,0-.35.05-.81.61-.61.75-1.03,1.67-1.41,2.48-.14.3-.44.95-1.23,1.09-.82.14-1.41.7-2.08,1.54-1.43,1.79-2.37,3.96-2.78,6.45-.47,2.86-1.98,4.9-4.49,6.05l-.31.15c-1.05.49-2.13.99-3.31,1.29-1.48.38-2.61,1.31-3.53,2.18-.23.21-.45.43-.66.66.13.09.26.19.38.3,3.33,2.87,7.19,8.99,9.75,13.04.83,1.31,1.48,2.35,1.85,2.84.44.54,4.16,3.91,5.62,5.03.78-1.31,1.6-5.16,1.94-6.74.38-1.79.58-2.67.83-3.13.48-.88.99-1.73,1.5-2.59.34-.56.67-1.12,1-1.69.13-.23.27-.46.41-.69.35-.58.69-1.12.89-1.7.47-1.33.43-2.75.4-4.24,0-.35-.02-.71-.02-1.06,0-.25-.03-.51-.1-.78-.45-1.89-.51-3.83-.18-5.74.19-1.12.86-1.91,1.9-2.22,1.12-.34,1.82-1.18,2.58-2.43Z"/>
    </g>
  </g>
</svg>